HIERARCHY
ROOT Hips
{
  OFFSET 0.0000 0.0000 0.0000
  CHANNELS 6 Xposition Yposition Zposition Zrotation Xrotation Yrotation
  JOINT Chest
  {
    OFFSET -0.1728 10.2870 0.1254
    CHANNELS 3 Zrotation Xrotation Yrotation
    JOINT Chest2
    {
      OFFSET 0.3229 15.8173 -2.6440
      CHANNELS 3 Zrotation Xrotation Yrotation
      JOINT LeftCollar
      {
        OFFSET -0.0683 16.8828 0.2989
        CHANNELS 3 Zrotation Xrotation Yrotation
        JOINT LeftShoulder
        {
          OFFSET 16.0110 -3.0750 2.0528
          CHANNELS 3 Zrotation Xrotation Yrotation
          JOINT LeftElbow
          {
            OFFSET 2.6153 -25.4187 1.7231
            CHANNELS 3 Zrotation Xrotation Yrotation
            JOINT LeftWrist
            {
              OFFSET 2.3595 -22.4741 1.0488
              CHANNELS 3 Zrotation Xrotation Yrotation
              End Site
              {
                  OFFSET 2.3165 -14.1216 1.0401
              }
            }
          }
        }
      }
      JOINT RightCollar
      {
        OFFSET -0.0683 16.8828 0.2989
        CHANNELS 3 Zrotation Xrotation Yrotation
        JOINT RightShoulder
        {
          OFFSET -16.3743 -2.4390 2.0841
          CHANNELS 3 Zrotation Xrotation Yrotation
          JOINT RightElbow
          {
            OFFSET -2.6865 -25.0857 1.2959
            CHANNELS 3 Zrotation Xrotation Yrotation
            JOINT RightWrist
            {
              OFFSET -2.3810 -22.8348 1.0329
              CHANNELS 3 Zrotation Xrotation Yrotation
              End Site
              {
                  OFFSET -2.1496 -14.9085 1.5341
              }
            }
          }
        }
      }
      JOINT Neck
      {
        OFFSET -0.0683 16.8828 0.2989
        CHANNELS 3 Zrotation Xrotation Yrotation
        JOINT Head
        {
          OFFSET 0.1300 11.4121 4.7143
          CHANNELS 3 Zrotation Xrotation Yrotation
          End Site
          {
              OFFSET 0.1781 18.0293 1.1743
          }
        }
      }
    }
  }
  JOINT LeftHip
  {
    OFFSET 9.3186 -0.0408 3.5432
    CHANNELS 3 Zrotation Xrotation Yrotation
    JOINT LeftKnee
    {
      OFFSET -0.5435 -48.8357 0.3144
      CHANNELS 3 Zrotation Xrotation Yrotation
      JOINT LeftAnkle
      {
        OFFSET 0.2027 -38.4920 -4.2946
        CHANNELS 3 Zrotation Xrotation Yrotation
        End Site
        {
            OFFSET 1.5867 -7.4572 18.5535
        }
      }
    }
  }
  JOINT RightHip
  {
    OFFSET -10.0712 -0.0749 3.1483
    CHANNELS 3 Zrotation Xrotation Yrotation
    JOINT RightKnee
    {
      OFFSET 0.3157 -48.5179 0.1055
      CHANNELS 3 Zrotation Xrotation Yrotation
      JOINT RightAnkle
      {
        OFFSET -1.1248 -38.4399 -3.4305
        CHANNELS 3 Zrotation Xrotation Yrotation
        End Site
        {
            OFFSET -1.0585 -7.3826 18.1840
        }
      }
    }
  }
}
MOTION
Frames:	19
Frame Time:	0.033333
-140.2630 85.0153 384.0414 11.19 6.82 114.85 15.58 3.34 7.21 15.62 3.35 7.27 -0.18 -0.70 0.26 75.00 24.71 16.18 6.23 -62.40 -5.80 -5.27 -10.65 22.95 -0.01 -0.80 0.01 -91.99 -13.78 -85.19 -11.39 -54.73 4.50 -32.75 -23.25 -110.90 15.40 -19.04 13.87 13.86 -11.92 13.37 -2.53 -21.27 28.07 0.13 -3.14 -0.27 -0.29 39.33 11.94 -8.85 0.40 -31.73 1.58 57.89 -2.54 0.19 -31.46 -18.73 
-139.3466 85.0139 384.2017 11.76 6.22 115.19 14.80 3.08 7.45 14.83 3.09 7.50 -0.18 -0.70 0.26 73.36 27.21 17.66 6.99 -57.80 -5.00 -5.97 -7.59 18.03 -0.01 -0.80 0.01 -93.41 -9.65 -82.03 -11.93 -49.02 4.11 -30.80 -23.04 -107.65 15.60 -15.17 13.19 14.17 -8.03 12.82 -1.78 -20.36 28.69 0.12 -4.97 -0.36 -0.33 40.12 12.04 -7.35 1.58 -31.94 1.51 56.98 -2.45 0.19 -31.64 -18.98 
-138.4390 85.0225 384.3870 12.27 5.65 115.69 13.97 2.72 7.49 14.01 2.73 7.54 -0.18 -0.70 0.26 71.88 29.28 19.17 7.54 -53.28 -4.40 -6.32 -4.52 13.40 -0.01 -0.80 0.01 -94.85 -6.18 -78.44 -12.36 -43.49 3.85 -28.00 -22.73 -102.45 15.65 -11.20 12.29 14.35 -4.04 12.04 -1.13 -19.69 29.35 0.11 -6.43 -0.45 -0.37 40.78 12.32 -5.94 2.71 -32.37 1.44 56.07 -2.36 0.19 -31.68 -19.20 
-137.5438 85.0392 384.5880 12.70 5.11 116.30 13.09 2.34 7.39 13.13 2.34 7.45 -0.18 -0.70 0.26 70.54 31.07 20.61 7.94 -49.13 -3.95 -6.28 -1.41 9.01 -0.01 -0.80 0.01 -96.36 -3.22 -74.59 -12.70 -38.36 3.67 -24.59 -22.30 -95.56 15.61 -7.31 11.28 14.44 -0.13 11.14 -0.58 -19.24 30.10 0.10 -7.58 -0.51 -0.40 41.35 12.59 -4.65 3.76 -32.95 1.37 55.20 -2.29 0.18 -31.55 -19.36 
-136.6645 85.0613 384.7902 13.03 4.67 117.01 12.17 1.96 7.26 12.20 1.96 7.32 -0.18 -0.70 0.26 69.26 32.59 21.92 8.23 -45.56 -3.63 -5.80 1.77 4.70 -0.01 -0.80 0.01 -98.01 -0.59 -70.89 -12.95 -33.91 3.55 -20.38 -21.61 -87.24 15.49 -3.70 10.26 14.44 3.50 10.20 -0.13 -19.03 31.02 0.09 -8.39 -0.57 -0.42 41.84 12.75 -3.50 4.70 -33.61 1.31 54.36 -2.22 0.18 -31.31 -19.52 
-135.7988 85.0874 384.9791 13.25 4.32 117.78 11.19 1.63 7.19 11.23 1.64 7.24 -0.18 -0.70 0.26 67.93 33.77 23.07 8.43 -42.66 -3.40 -4.92 4.98 0.30 -0.01 -0.80 0.01 -99.85 1.93 -67.78 -13.14 -30.47 3.48 -14.92 -20.22 -77.64 15.28 -0.53 9.25 14.36 6.69 9.25 0.21 -19.00 32.01 0.09 -8.94 -0.61 -0.44 42.25 12.75 -2.45 5.51 -34.23 1.26 53.57 -2.15 0.17 -31.04 -19.70 
-134.9354 85.1181 385.1401 13.35 4.07 118.56 10.17 1.37 7.21 10.21 1.38 7.26 -0.18 -0.70 0.26 66.48 34.61 24.03 8.56 -40.39 -3.24 -3.72 8.12 -4.27 -0.01 -0.80 0.01 -101.92 4.42 -65.52 -13.25 -28.20 3.44 -8.02 -17.43 -66.92 15.02 2.09 8.24 14.21 9.33 8.28 0.45 -19.10 33.00 0.08 -9.31 -0.65 -0.46 42.55 12.63 -1.48 6.20 -34.73 1.21 52.79 -2.09 0.16 -30.79 -20.03 
-134.0562 85.1568 385.2577 13.35 3.90 119.31 9.11 1.18 7.37 9.15 1.18 7.42 -0.18 -0.70 0.26 64.90 35.15 24.80 8.66 -38.62 -3.12 -2.33 11.04 -8.99 -0.01 -0.80 0.01 -104.20 6.85 -64.01 -13.31 -27.04 3.43 -0.09 -12.58 -55.59 14.74 4.20 7.23 14.06 11.45 7.28 0.54 -19.14 33.83 0.08 -9.77 -0.67 -0.46 42.72 12.44 -0.57 6.81 -35.05 1.16 52.02 -2.03 0.15 -30.56 -20.54 
-133.1417 85.2095 385.3157 13.27 3.81 119.99 8.01 1.04 7.63 8.05 1.03 7.68 -0.18 -0.70 0.26 63.20 35.52 25.30 8.74 -37.15 -3.03 -0.87 13.56 -13.71 -0.01 -0.80 0.01 -106.65 9.09 -62.87 -13.33 -26.65 3.42 7.71 -5.84 -44.44 14.50 5.85 6.21 13.94 13.12 6.28 0.49 -19.07 34.45 0.07 -10.34 -0.69 -0.46 42.74 12.24 0.29 7.43 -35.21 1.12 51.21 -1.97 0.14 -30.38 -21.28 
-132.1770 85.2839 385.3003 13.14 3.80 120.57 6.90 0.90 7.93 6.94 0.90 7.98 -0.18 -0.70 0.26 61.44 35.84 25.47 8.80 -35.83 -2.94 0.53 15.61 -18.26 -0.01 -0.80 0.01 -109.18 11.00 -61.62 -13.33 -26.63 3.42 14.38 1.86 -33.98 14.36 7.16 5.21 13.92 14.44 5.27 0.27 -18.81 34.81 0.06 -11.07 -0.71 -0.46 42.63 12.04 1.08 8.12 -35.28 1.07 50.27 -1.91 0.12 -30.23 -22.14 
-131.1530 85.3882 385.2041 12.97 3.89 121.11 5.76 0.76 8.22 5.80 0.76 8.27 -0.18 -0.70 0.26 59.64 36.19 25.28 8.86 -34.59 -2.87 1.81 17.15 -22.53 -0.01 -0.80 0.01 -111.64 12.48 -60.01 -13.33 -26.65 3.42 19.37 9.28 -24.23 14.32 8.18 4.24 14.00 15.47 4.29 -0.02 -18.48 34.94 0.05 -11.75 -0.72 -0.45 42.37 11.85 1.78 8.94 -35.35 1.01 49.16 -1.83 0.11 -30.06 -23.01 
-130.0644 85.5319 385.0284 12.71 4.04 121.68 4.58 0.60 8.50 4.62 0.59 8.54 -0.18 -0.70 0.26 57.90 36.61 24.81 8.91 -33.47 -2.81 2.92 18.31 -26.51 -0.01 -0.80 0.01 -113.78 13.54 -58.10 -13.33 -26.59 3.42 22.53 15.45 -14.98 14.43 8.93 3.34 14.23 16.23 3.36 -0.40 -18.16 34.81 0.04 -12.26 -0.72 -0.44 41.96 11.61 2.39 9.85 -35.50 0.95 47.87 -1.75 0.10 -29.79 -23.79 
-128.9071 85.7242 384.7835 12.28 4.24 122.35 3.27 0.38 8.72 3.31 0.37 8.77 -0.18 -0.70 0.26 56.29 37.08 24.18 8.95 -32.52 -2.76 3.81 19.23 -30.26 -0.01 -0.80 0.01 -115.35 14.25 -56.18 -13.33 -26.54 3.42 24.08 20.22 -6.15 14.71 9.43 2.51 14.61 16.73 2.51 -0.86 -17.96 34.45 0.04 -12.43 -0.72 -0.42 41.35 11.26 2.92 10.77 -35.74 0.88 46.36 -1.66 0.08 -29.34 -24.49 
-127.6779 85.9738 384.4831 11.62 4.45 123.15 1.78 0.06 8.89 1.82 0.04 8.93 -0.18 -0.70 0.26 54.88 37.55 23.57 8.98 -31.83 -2.72 4.42 20.08 -33.84 -0.01 -0.80 0.01 -116.15 14.75 -54.60 -13.33 -26.72 3.42 24.36 23.76 2.08 15.21 9.66 1.79 15.20 16.97 1.77 -1.41 -17.98 33.84 0.04 -12.19 -0.68 -0.39 40.47 10.76 3.40 11.59 -35.99 0.81 44.66 -1.56 0.07 -28.70 -25.18 
-126.3759 86.2857 384.1397 10.66 4.64 124.09 0.08 -0.38 8.98 0.12 -0.39 9.02 -0.18 -0.70 0.26 53.71 38.00 23.01 9.00 -31.36 -2.69 4.74 20.93 -37.21 -0.01 -0.80 0.01 -116.18 15.16 -53.53 -13.30 -27.18 3.43 23.75 26.37 9.38 15.91 9.63 1.18 15.98 16.93 1.13 -2.02 -18.32 33.00 0.05 -11.39 -0.62 -0.33 39.18 10.12 3.86 12.23 -36.13 0.73 42.76 -1.46 0.04 -27.89 -26.00 
-125.0042 86.6560 383.7591 9.39 4.78 125.15 -1.81 -0.90 9.04 -1.77 -0.92 9.08 -0.18 -0.70 0.26 52.78 38.35 22.46 9.01 -31.05 -2.68 4.75 21.76 -40.23 -0.01 -0.80 0.01 -115.64 15.55 -52.95 -13.27 -27.86 3.44 22.61 28.31 15.39 16.74 9.32 0.65 16.88 16.62 0.59 -2.65 -19.06 32.01 0.07 -9.94 -0.53 -0.25 37.35 9.33 4.34 12.66 -36.06 0.66 40.66 -1.35 0.00 -26.94 -27.08 
-123.5690 87.0695 383.3361 7.87 4.86 126.26 -3.81 -1.45 9.07 -3.77 -1.47 9.11 -0.18 -0.70 0.26 52.04 38.55 21.61 9.03 -30.69 -2.66 4.55 22.44 -42.70 -0.01 -0.80 0.01 -114.92 15.96 -52.63 -13.23 -28.57 3.45 21.28 29.74 19.89 17.51 8.74 0.18 17.71 16.04 0.09 -3.23 -20.17 30.92 0.09 -7.73 -0.41 -0.15 34.87 8.46 4.82 12.93 -35.74 0.59 38.35 -1.24 -0.04 -25.84 -28.39 
-122.0757 87.5006 382.8526 6.23 4.89 127.39 -5.81 -1.97 9.10 -5.77 -2.00 9.14 -0.18 -0.70 0.26 51.34 38.55 20.21 9.05 -30.09 -2.63 4.23 22.77 -44.43 -0.01 -0.80 0.01 -114.38 16.38 -52.35 -13.20 -29.22 3.46 19.97 30.79 22.89 18.09 7.90 -0.28 18.35 15.20 -0.38 -3.75 -21.55 29.75 0.11 -4.83 -0.27 -0.06 31.74 7.63 5.31 13.16 -35.22 0.53 35.94 -1.14 -0.09 -24.51 -29.82 
-120.5245 87.9230 382.2758 4.61 4.89 128.50 -7.65 -2.31 9.18 -7.61 -2.34 9.21 -0.18 -0.70 0.26 50.53 38.31 17.98 9.09 -29.00 -2.57 3.94 22.56 -45.26 -0.01 -0.80 0.01 -114.38 16.76 -51.94 -13.18 -29.70 3.47 18.83 31.58 24.60 18.37 6.82 -0.76 18.69 14.12 -0.87 -4.17 -23.05 28.48 0.12 -1.35 -0.10 0.02 28.03 6.96 5.77 13.49 -34.56 0.47 33.55 -1.04 -0.12 -22.79 -31.12 
